<svg id="Layer_1" data-name="Layer 1" xmlns="http://www.w3.org/2000/svg" viewBox="0 0 63.22 89.97"><defs><style>.cls-1{fill:#f15a24;}.cls-2{fill:#ff7c2e;}.cls-3{fill:#ff772e;}.cls-4{fill:#00a207;}.cls-5{fill:#ff7f2f;}</style></defs><path class="cls-1" d="M17.9,2.52C23.64,6,28.26,11.05,32.38,16.34s7.84,10.91,12.24,16A77.23,77.23,0,0,0,55.78,42.85c4,3.08,8.4,5.89,11,10.18" transform="translate(-15.54 -0.99)"/><path class="cls-2" d="M17.14,3.81C25,8.64,30.49,16.17,35.85,23.47a138.5,138.5,0,0,0,8.91,11.26A78.17,78.17,0,0,0,55,44.14c3.76,2.9,7.92,5.56,10.52,9.65,1,1.62,3.63.12,2.59-1.52-2.36-3.72-5.81-6.38-9.3-9A85.37,85.37,0,0,1,48.27,34.1c-6.74-7-11.72-15.47-18.09-22.8A51,51,0,0,0,18.66,1.22C17,.21,15.5,2.8,17.14,3.81Z" transform="translate(-15.54 -0.99)"/><path class="cls-3" d="M15.77,4.6c4.24,7,5.43,15.45,7.63,23.21,1.2,4.2,2.43,8.39,3.21,12.69s.88,8.71,1.33,13.07a119.3,119.3,0,0,0,2.69,14.62c.43,1.88,3.33,1.08,2.89-.8A116.32,116.32,0,0,1,31,54c-.48-4.31-.57-8.65-1.25-12.94a108.79,108.79,0,0,0-3.12-12.94c-1.16-4.1-2.19-8.23-3.27-12.34a48,48,0,0,0-5-12.73c-1-1.65-3.6-.14-2.59,1.51Z" transform="translate(-15.54 -0.99)"/><path class="cls-3" d="M65.4,53.62c1.95,1.66,1.33,4.36.53,6.45a26.2,26.2,0,0,1-3.88,6.77,1.55,1.55,0,0,0,0,2.12,1.52,1.52,0,0,0,2.13,0A29.88,29.88,0,0,0,69,60.34c1-3,1.09-6.65-1.48-8.84a1.5,1.5,0,0,0-2.13,2.12Z" transform="translate(-15.54 -0.99)"/><path class="cls-3" d="M50.87,73.88a5.54,5.54,0,0,1-1.14,1.93,2.51,2.51,0,0,1-2.3.21,26.71,26.71,0,0,1-5.54-2c-1.75-.82-3.44-1.75-5.13-2.69-1-.56-3.06-1.42-3.22-2.77a1.54,1.54,0,0,0-1.5-1.5,1.51,1.51,0,0,0-1.5,1.5c.27,2.28,1.82,3.69,3.72,4.8A71.42,71.42,0,0,0,41,76.93a21.88,21.88,0,0,0,7.16,2.24c2.67.19,4.25-1.53,5.27-3.78a1.55,1.55,0,0,0-.53-2,1.52,1.52,0,0,0-2.06.54Z" transform="translate(-15.54 -0.99)"/><path class="cls-4" d="M55.43,63.35a73.72,73.72,0,0,0,9.85,8.75c3.42,2.36,7.48,3.43,11.23,5.12a1.54,1.54,0,0,0,2-.54A1.5,1.5,0,0,0,78,74.63C74.4,73,70.46,71.94,67.12,69.72c-3.52-2.32-6.6-5.52-9.57-8.49a1.5,1.5,0,0,0-2.12,2.12Z" transform="translate(-15.54 -0.99)"/><path class="cls-4" d="M45.38,65a5.91,5.91,0,0,1,2.31,1.91,29.64,29.64,0,0,1,2.1,2.64,31.55,31.55,0,0,1,3.34,6C55,80.19,55.2,85.08,56.3,89.89c.43,1.88,3.32,1.09,2.89-.8-.63-2.79-.87-5.66-1.42-8.47a34.07,34.07,0,0,0-2.4-7.36,32.91,32.91,0,0,0-3.85-6.42c-1.43-1.86-3-4-5.34-4.77-1.84-.6-2.63,2.3-.8,2.9Z" transform="translate(-15.54 -0.99)"/><path class="cls-4" d="M52,63.34c2.93,4.37,6,8.61,9.31,12.74s6.4,8,8.79,12.57c.9,1.71,3.49.2,2.59-1.51a80.12,80.12,0,0,0-8.7-12.48c-3.3-4.16-6.45-8.42-9.4-12.84-1.07-1.59-3.66-.09-2.59,1.52Z" transform="translate(-15.54 -0.99)"/><path class="cls-5" d="M56.38,44.42l-.38.32c-.07.06-.42.33-.18.15-.26.2-.53.39-.8.58a17.3,17.3,0,0,1-1.76,1c-.29.15-.59.3-.89.43l-.11.05-.1,0a4.52,4.52,0,0,1-.47.18,16.87,16.87,0,0,1-1.95.6,1.5,1.5,0,1,0,.8,2.89,19.06,19.06,0,0,0,8-4.16,1.5,1.5,0,0,0,0-2.12,1.52,1.52,0,0,0-2.12,0Z" transform="translate(-15.54 -0.99)"/><path class="cls-3" d="M37.93,39.86a5.34,5.34,0,0,0-1,.33l-.62.26c-.16.06-.17.07,0,0l-.26.1a4.86,4.86,0,0,1-.92.27c.29,0-.3,0-.36,0h-.55a8,8,0,0,0-2.32.4c-.31.09-.63.19-.95.26l-.27.06c.17,0,.17,0,0,0s-.61,0-.28,0a1.5,1.5,0,1,0-.8,2.89,5.88,5.88,0,0,0,2.7-.2c.37-.1.73-.23,1.09-.32.07,0,.62-.1.3-.07l.54,0a7,7,0,0,0,2.5-.33,12.07,12.07,0,0,1,2.07-.75,1.5,1.5,0,1,0-.79-2.89Z" transform="translate(-15.54 -0.99)"/></svg>