<svg id="Layer_1" data-name="Layer 1" xmlns="http://www.w3.org/2000/svg" viewBox="0 0 66.27 87.18"><path d="M13.22,90.39c1.23-9.18,6-17.34,10.54-25.24,4.68-8.2,8.75-16.54,11-25.77,1.1-4.63,1.88-9.44,4.56-13.47,1.07-1.61-1.53-3.12-2.59-1.52-2.43,3.65-3.43,7.92-4.39,12.14a84.15,84.15,0,0,1-4.16,13.52C24.47,59,18.8,66.86,14.75,75.6a51.32,51.32,0,0,0-4.53,14.79,1.5,1.5,0,0,0,1.5,1.5,1.54,1.54,0,0,0,1.5-1.5Z" transform="translate(-10.21 -4.86)"/><path d="M14.57,91.37c4.57-6.59,11.71-11,17.79-16.11,3.28-2.73,6.52-5.51,10-7.94,3.69-2.55,7.72-4.48,11.61-6.69A116.19,116.19,0,0,0,66.34,52.2c1.53-1.14,0-3.75-1.51-2.59a122.83,122.83,0,0,1-11.1,7.72c-3.93,2.33-8.09,4.24-11.91,6.77a117.84,117.84,0,0,0-10.36,8c-3.24,2.71-6.57,5.3-9.86,7.94A47.28,47.28,0,0,0,12,89.86c-1.11,1.59,1.49,3.09,2.59,1.51Z" transform="translate(-10.21 -4.86)"/><path d="M39.14,26.08c.64-2.17,3.18-2.8,5.17-2.93a26.77,26.77,0,0,1,8.36.8c1.87.48,2.67-2.42.8-2.89a27.7,27.7,0,0,0-10.21-.81c-3.06.39-6.08,1.87-7,5-.54,1.86,2.35,2.65,2.9.8Z" transform="translate(-10.21 -4.86)"/><path d="M63.68,31.27a4,4,0,0,1,2.32.39,3,3,0,0,1,.88,1.91,26.6,26.6,0,0,1,.42,6c0,2-.22,4.08-.41,6.12-.11,1.21-.15,2.95-1.32,3.65a1.5,1.5,0,0,0,1.51,2.59c1.91-1.14,2.48-3.22,2.72-5.29a66.63,66.63,0,0,0,.51-7.86,19.63,19.63,0,0,0-1-7.43c-1-2.44-3.22-3-5.65-3.06a1.5,1.5,0,0,0,0,3Z" transform="translate(-10.21 -4.86)"/><path d="M52.09,31.24A74.51,74.51,0,0,0,56,19.16c.82-4.26.18-8.55.19-12.85a1.5,1.5,0,0,0-3,0c0,4.15.71,8.4-.17,12.5a80.58,80.58,0,0,1-3.79,11.63c-.69,1.81,2.21,2.59,2.9.8Z" transform="translate(-10.21 -4.86)"/><path d="M57.62,40.12C57.4,38,59,35.6,60.07,33.86a30.62,30.62,0,0,1,9.09-9.59c2.18-1.47,4.47-2.76,6.58-4.34a1.56,1.56,0,0,0,.54-2.06,1.53,1.53,0,0,0-2.06-.54C72,19,69.48,20.4,67.16,22a33.61,33.61,0,0,0-9.94,10.77c-1.22,2.1-2.86,4.83-2.6,7.33.19,1.9,3.2,1.92,3,0Z" transform="translate(-10.21 -4.86)"/><path d="M53.52,34.44C56.3,30,58.88,25.51,61.3,20.89c2.33-4.46,4.62-9,7.75-13,1.19-1.5-.92-3.63-2.12-2.12a83.17,83.17,0,0,0-8,13.19c-2.48,4.75-5.12,9.41-8,13.94-1,1.64,1.56,3.15,2.59,1.52Z" transform="translate(-10.21 -4.86)"/><path d="M34.13,38.1a16.85,16.85,0,0,1,1.78.95c.29.18.57.37.85.56l.39.28s.28.22.1.07l.1.08a18.24,18.24,0,0,1,1.47,1.32c.23.24.47.48.69.74s.23.26.34.4.41.51.17.2a1.63,1.63,0,0,0,.89.68,1.5,1.5,0,0,0,1.7-2.2,19.07,19.07,0,0,0-7-5.67,1.53,1.53,0,0,0-2,.54,1.5,1.5,0,0,0,.53,2.05Z" transform="translate(-10.21 -4.86)"/><path d="M37.55,56.72a15,15,0,0,0,1.68,1.8c.11.12.23.24.33.36l.11.13-.11-.13c.06,0,.12.18.15.23a11.29,11.29,0,0,1,.53,1.11,8.57,8.57,0,0,0,1.36,1.92l.34.39c.13.15,0,0,0-.06s.13.17.18.25.15.26.23.38-.09-.3,0,0c0,.1.06.2.08.3a1.52,1.52,0,0,0,1.85,1,1.53,1.53,0,0,0,1-1.84A5.59,5.59,0,0,0,44,60.33c-.22-.26-.45-.52-.67-.79s.19.27,0,0l-.12-.17a5.54,5.54,0,0,1-.3-.53c-.18-.37-.32-.76-.51-1.12a5.57,5.57,0,0,0-.83-1.1c-.25-.27-.52-.51-.79-.77l-.39-.38-.18-.2c-.21-.22.16.23,0,0a1.5,1.5,0,1,0-2.59,1.51Z" transform="translate(-10.21 -4.86)"/><path d="M22,68.89l.24.1-.36-.15a8.32,8.32,0,0,1,1.87,1.09l-.3-.24A9.29,9.29,0,0,1,25,71.22l-.24-.3a9,9,0,0,1,.56.81,1.5,1.5,0,0,0,2.05.54,1.53,1.53,0,0,0,.54-2,9.69,9.69,0,0,0-2.07-2.44,10.56,10.56,0,0,0-3-1.78,1.45,1.45,0,0,0-1.15.15,1.53,1.53,0,0,0-.69.89,1.51,1.51,0,0,0,.15,1.16,1.68,1.68,0,0,0,.9.69Z" transform="translate(-10.21 -4.86)"/></svg>